<svg width="76" height="75" fill="none" xmlns="http://www.w3.org/2000/svg"><circle cx="37.505" cy="37.505" r="37.505" fill="#C8DCDF"/><path d="M27.465 50.668c-3.427 0-5.832-1.2-7.218-3.6-1.373-2.4-2.06-5.82-2.06-10.26 0-4.441.687-7.868 2.06-10.28 1.386-2.412 3.791-3.618 7.218-3.618 3.426 0 5.832 1.206 7.218 3.618 1.373 2.412 2.06 5.839 2.06 10.28 0 4.44-.694 7.86-2.079 10.26-1.373 2.4-3.773 3.6-7.2 3.6zm3.099-6.773c.482-1.632.723-3.995.723-7.087 0-3.241-.247-5.641-.742-7.2-.483-1.558-1.51-2.338-3.08-2.338-1.571 0-2.61.78-3.117 2.338-.508 1.559-.761 3.959-.761 7.2 0 3.092.253 5.46.76 7.106.508 1.633 1.547 2.45 3.118 2.45 1.57 0 2.604-.823 3.099-2.468zm20.8-15.326c-.632-.754-1.535-1.131-2.71-1.131-1.608 0-2.703.6-3.284 1.8-.334.692-.532 1.793-.594 3.302h-5.14c.087-2.288.502-4.138 1.244-5.548 1.41-2.684 3.915-4.026 7.514-4.026 2.846 0 5.11.791 6.791 2.375 1.683 1.57 2.524 3.655 2.524 6.253 0 1.991-.594 3.76-1.781 5.306-.78 1.027-2.06 2.171-3.841 3.433l-2.115 1.503c-1.324.94-2.233 1.62-2.728 2.041-.482.42-.89.91-1.224 1.466h11.745V50H39.34c.05-1.93.464-3.692 1.243-5.288.755-1.794 2.536-3.693 5.344-5.696 2.437-1.744 4.014-2.994 4.731-3.748 1.101-1.176 1.652-2.462 1.652-3.86 0-1.138-.316-2.084-.947-2.839z" fill="#438090"/></svg>