<svg width="76" height="75" fill="none" xmlns="http://www.w3.org/2000/svg"><circle cx="37.505" cy="37.505" r="37.505" fill="#C8DCDF"/><path d="M27.19 50.65c-3.337 0-5.68-1.168-7.028-3.505-1.337-2.336-2.006-5.666-2.006-9.99s.669-7.66 2.006-10.009c1.349-2.349 3.691-3.523 7.027-3.523 3.337 0 5.68 1.174 7.028 3.523 1.337 2.349 2.006 5.685 2.006 10.009 0 4.324-.675 7.654-2.024 9.99-1.337 2.337-3.673 3.505-7.01 3.505zm3.016-6.594c.47-1.59.705-3.89.705-6.901 0-3.156-.24-5.492-.723-7.01-.47-1.518-1.469-2.276-2.998-2.276-1.53 0-2.542.758-3.036 2.276-.494 1.518-.74 3.854-.74 7.01 0 3.01.246 5.317.74 6.92.494 1.59 1.506 2.384 3.035 2.384 1.53 0 2.536-.801 3.017-2.403zm14.472-15.031c-.578.77-.855 1.8-.831 3.09H39.04c.048-1.302.271-2.536.669-3.704.421-1.024 1.084-1.97 1.987-2.837a6.925 6.925 0 0 1 2.403-1.409c.927-.325 2.065-.488 3.414-.488 2.505 0 4.523.65 6.052 1.951 1.542 1.29 2.313 3.023 2.313 5.203 0 1.542-.458 2.843-1.373 3.903-.578.662-1.18 1.114-1.807 1.355.47 0 1.144.403 2.024 1.21 1.313 1.217 1.969 2.879 1.969 4.987 0 2.216-.77 4.167-2.313 5.853-1.53 1.674-3.8 2.511-6.81 2.511-3.71 0-6.288-1.21-7.733-3.631-.759-1.289-1.18-2.975-1.265-5.059h5.059c0 1.048.168 1.916.506 2.602.626 1.265 1.764 1.897 3.414 1.897a3.77 3.77 0 0 0 2.638-1.03c.759-.698 1.138-1.698 1.138-2.999 0-1.722-.698-2.872-2.096-3.45-.794-.326-2.047-.488-3.757-.488v-3.686c1.674-.024 2.842-.186 3.505-.488 1.144-.505 1.716-1.53 1.716-3.07 0-1-.295-1.814-.885-2.44-.578-.626-1.398-.94-2.457-.94-1.217 0-2.108.386-2.674 1.157z" fill="#438090"/></svg>