<svg width="51" height="45" fill="none" xmlns="http://www.w3.org/2000/svg"><path fill="#fff" d="M0 0h51v45H0z"/><path d="m18.475 17.438 14.05.015c.5.001.854.682.904 1.524l.703 11.758c.051.843-.403 1.524-.904 1.524h-15.32c-.502 0-.946-.68-.905-1.524l.567-11.687c.041-.843.404-1.61.905-1.61zM29.99 16.563c0-.802-.205-1.59-.594-2.285a4.495 4.495 0 0 0-1.624-1.67A4.317 4.317 0 0 0 25.555 12a4.318 4.318 0 0 0-2.213.62 4.497 4.497 0 0 0-1.615 1.68 4.677 4.677 0 0 0-.582 2.288" stroke="#333" stroke-width="1.032" stroke-linecap="round" stroke-linejoin="round"/></svg>