<svg width="51" height="45" fill="none" xmlns="http://www.w3.org/2000/svg"><path fill="#fff" d="M0 0h51v45H0z"/><path d="M31.896 15.616h-3.871a1.996 1.996 0 0 0-.608-1.35 1.964 1.964 0 0 0-1.364-.55H24.95c-.509-.001-.998.196-1.365.55a1.995 1.995 0 0 0-.607 1.35h-3.872a1.59 1.59 0 0 0-1.028.519 1.615 1.615 0 0 0 0 2.162 1.59 1.59 0 0 0 1.028.52h.174v10.48a2.04 2.04 0 0 0 .59 1.408c.371.373.872.587 1.397.595h8.584a1.993 1.993 0 0 0 1.4-.591c.372-.375.582-.882.586-1.412v-10.48a1.59 1.59 0 0 0 1.029-.52 1.615 1.615 0 0 0 0-2.162 1.59 1.59 0 0 0-1.029-.52h.058zm-6.945-.921h1.102a.996.996 0 0 1 .669.268c.182.17.295.403.317.653h-3.074c.021-.25.134-.482.316-.653a.996.996 0 0 1 .67-.268zm5.916 14.617c0 .271-.107.531-.298.723-.19.192-.448.3-.717.3h-8.584a1.025 1.025 0 0 1-.714-.304 1.041 1.041 0 0 1-.301-.72V18.818h2.044v6.855a.498.498 0 0 0 .486.412.49.49 0 0 0 .486-.412v-6.855h2.059v8.77a.497.497 0 0 0 .485.412.49.49 0 0 0 .486-.412v-8.77h2.103v6.855a.498.498 0 0 0 .485.412.49.49 0 0 0 .486-.412v-6.855h1.494v10.495zm1.03-11.46h-12.79a.623.623 0 0 1-.529-.621.632.632 0 0 1 .53-.622h12.788a.632.632 0 0 1 0 1.242z" fill="#000"/></svg>