<svg width="22" height="26" fill="none" xmlns="http://www.w3.org/2000/svg"><path d="m2.524 7.498 16.897.018c.603 0 1.028.821 1.088 1.837l.847 14.173c.06 1.016-.486 1.837-1.089 1.837H1.841c-.603 0-1.137-.82-1.088-1.837L1.436 9.44c.05-1.017.485-1.942 1.088-1.941zM16.373 6.443c0-.967-.247-1.918-.715-2.755a5.413 5.413 0 0 0-1.953-2.014A5.185 5.185 0 0 0 11.04.942a5.186 5.186 0 0 0-2.662.747 5.416 5.416 0 0 0-1.942 2.025 5.647 5.647 0 0 0-.7 2.759" stroke="#9E9E9E" stroke-linecap="round" stroke-linejoin="round"/></svg>