<svg width="76" height="75" fill="none" xmlns="http://www.w3.org/2000/svg"><circle cx="37.505" cy="37.505" fill="#6DACBD" fill-opacity=".35" r="37.505"/><path d="M27.465 50.668c-3.427 0-5.832-1.2-7.218-3.6-1.373-2.4-2.06-5.82-2.06-10.26 0-4.441.687-7.868 2.06-10.28 1.386-2.412 3.791-3.618 7.218-3.618 3.426 0 5.832 1.206 7.218 3.618 1.373 2.412 2.06 5.839 2.06 10.28 0 4.44-.694 7.86-2.079 10.26-1.373 2.4-3.773 3.6-7.2 3.6zm3.099-6.773c.482-1.632.723-3.995.723-7.087 0-3.241-.247-5.641-.742-7.2-.483-1.558-1.51-2.338-3.08-2.338-1.571 0-2.61.78-3.117 2.338-.508 1.559-.761 3.959-.761 7.2 0 3.092.253 5.46.76 7.106.508 1.633 1.547 2.45 3.118 2.45 1.57 0 2.604-.823 3.099-2.468zM52.532 50h-5.418V31.445h-6.327v-3.6c1.67-.073 2.839-.185 3.507-.333 1.064-.235 1.93-.705 2.598-1.41.457-.483.804-1.126 1.039-1.93.136-.483.204-.841.204-1.076h4.397V50z" fill="#438090"/></svg>