<svg width="47" height="47" fill="none" xmlns="http://www.w3.org/2000/svg"><circle cx="23.5" cy="23.5" r="23.5" fill="#C8DFE6"/><path d="M36.65 15.546a.528.528 0 0 0-.018-.13.536.536 0 0 0-.045-.121.951.951 0 0 0-.068-.112c-.007-.009-.01-.018-.018-.027-.006-.008-.014-.013-.02-.02a.629.629 0 0 0-.049-.047l-.049-.04a.699.699 0 0 0-.11-.065.626.626 0 0 0-.25-.06c-.008 0-.016-.003-.025-.003H10.004l-.03.003a.791.791 0 0 0-.13.018.691.691 0 0 0-.058.019l-.06.024a.654.654 0 0 0-.206.152l-.02.019c-.006.008-.01.018-.017.027a.512.512 0 0 0-.069.111.666.666 0 0 0-.063.252c0 .01-.003.02-.003.032v16.406c0 .362.293.656.656.656h25.994a.656.656 0 0 0 .657-.656V15.578c0-.01-.003-.02-.004-.032zM23 25.621l-11.193-9.387h22.387l-11.193 9.387zm-12.34 5.707V16.985l11.919 9.996c.003.002.007.003.01.006a.64.64 0 0 0 .175.1c.013.006.027.01.04.014.064.02.129.033.195.033h.003c.066 0 .13-.014.194-.034l.041-.013a.64.64 0 0 0 .175-.1c.003-.003.007-.004.01-.006l11.92-9.996v14.343H10.66z" fill="#fff"/></svg>