<svg width="25" height="21" fill="none" xmlns="http://www.w3.org/2000/svg"><path d="m13.17 19.65 8.986-8.697c2.207-2.147 2.529-5.658.443-7.902a5.76 5.76 0 0 0-1.87-1.341 5.939 5.939 0 0 0-4.559-.123c-.73.28-1.391.702-1.946 1.238l-1.686 1.643-1.453-1.417C8.867.914 5.24.603 2.921 2.62a5.6 5.6 0 0 0-1.386 1.811 5.425 5.425 0 0 0-.127 4.413 5.57 5.57 0 0 0 1.28 1.883l9.218 8.922a.915.915 0 0 0 .632.252c.237 0 .464-.09.633-.252z" stroke="#9E9E9E" stroke-linecap="round" stroke-linejoin="round"/></svg>