<svg width="23" height="24" fill="none" xmlns="http://www.w3.org/2000/svg"><path d="M11.5.3C5.16.3 0 5.506 0 11.905c0 6.398 5.16 11.604 11.5 11.604S23 18.303 23 11.905C23 5.506 17.84.3 11.5.3zM8.55 3.87h5.898c2.764 0 5.014 2.27 5.014 5.058v5.951c0 2.79-2.25 5.06-5.013 5.06H8.552c-2.764 0-5.014-2.27-5.014-5.058V8.93c0-2.79 2.25-5.06 5.013-5.06zm0 1.786c-1.787 0-3.242 1.47-3.242 3.274v5.95c0 1.805 1.456 3.273 3.244 3.273h5.897c1.788 0 3.243-1.47 3.243-3.274v-5.95c0-1.805-1.456-3.273-3.244-3.273H8.55zm7.08 1.487c.325 0 .588.266.588.595a.593.593 0 0 1-.589.596.595.595 0 0 1 0-1.19zm-4.13.298c2.439 0 4.423 2.003 4.423 4.464 0 2.46-1.984 4.463-4.423 4.463s-4.423-2.002-4.423-4.463c0-2.461 1.984-4.464 4.423-4.464zm0 1.786c-.704 0-1.379.282-1.877.784a2.69 2.69 0 0 0-.777 1.894c0 .71.28 1.391.777 1.893a2.642 2.642 0 0 0 1.877.785c.704 0 1.379-.283 1.877-.785a2.69 2.69 0 0 0 .777-1.893c0-.71-.28-1.392-.777-1.894a2.642 2.642 0 0 0-1.877-.784z" fill="#fff"/></svg>