<svg width="27" height="27" fill="none" xmlns="http://www.w3.org/2000/svg"><path d="M19.01 14.676v-5.19a.398.398 0 0 0-.395-.395H7.192c-.986 0-1.819-.812-1.819-1.777v-.037c.021-.96.817-1.74 1.777-1.74h11.465c.216 0 .395-.18.395-.395a.398.398 0 0 0-.395-.396H7.15a2.578 2.578 0 0 0-2.568 2.516V19.106c0 1.18.96 2.146 2.146 2.146h9.334a3.79 3.79 0 0 0 2.558.997 3.801 3.801 0 0 0 3.797-3.797 3.802 3.802 0 0 0-3.407-3.776zm-13.637 4.44V9.155c.47.453 1.113.727 1.82.727h11.026v4.794a3.805 3.805 0 0 0-3.396 3.776c0 .738.211 1.429.58 2.014h-8.68c-.744 0-1.35-.606-1.35-1.35zm13.247 2.347a3.011 3.011 0 0 1-3.006-3.006 3.011 3.011 0 0 1 3.006-3.006 3.011 3.011 0 0 1 3.006 3.006 3.011 3.011 0 0 1-3.006 3.006z" fill="#000"/><path d="M19.644 18.267h-.628v-1.466a.398.398 0 0 0-.395-.395.398.398 0 0 0-.396.395v1.466h-.628a.401.401 0 0 0-.326.628l1.023 1.445a.395.395 0 0 0 .321.168.395.395 0 0 0 .322-.168l1.023-1.445a.398.398 0 0 0 .026-.412.365.365 0 0 0-.342-.216zm-1.023 1.155-.259-.364h.517l-.258.364zM6.634 6.919a.398.398 0 0 0-.396.395c0 .216.18.396.396.396h11.454c.216 0 .395-.18.395-.396a.398.398 0 0 0-.395-.395H6.634z" fill="#000"/></svg>