<svg width="62" height="62" fill="none" xmlns="http://www.w3.org/2000/svg"><circle cx="31" cy="31" r="31" fill="#CFE4E9"/><g clip-path="url(#a)" stroke="#000" stroke-miterlimit="10"><path d="M44.68 26.4a1.44 1.44 0 0 0-2.88 0v10.8a1.44 1.44 0 0 0 2.88 0V26.4zM33.161 45.84a1.44 1.44 0 0 0 0-2.88h-3.6a1.44 1.44 0 0 0 0 2.88h3.6z"/><path d="M18.762 25.68c0-6.76 5.48-12.24 12.24-12.24s12.24 5.48 12.24 12.24M44.68 26.4c1.988 0 3.6 2.417 3.6 5.4 0 2.981-1.612 5.4-3.6 5.4"/><path d="M17.32 26.4a1.44 1.44 0 0 1 2.88 0v10.8a1.44 1.44 0 0 1-2.88 0V26.4zM17.319 26.4c-1.988 0-3.6 2.417-3.6 5.4 0 2.981 1.612 5.4 3.6 5.4M43.242 38.64c0 3.6-2.16 5.76-5.76 5.76h-2.88"/></g><defs><clipPath id="a"><path fill="#fff" transform="translate(13 12)" d="M0 0h36v36H0z"/></clipPath></defs></svg>