<svg width="120" height="120" fill="none" xmlns="http://www.w3.org/2000/svg"><circle cx="60" cy="60" r="60" fill="#6DACBD"/><path d="M83.18 23.35c-8.134 0-14.711 6.577-14.711 14.71 0 8.133 6.577 14.71 14.71 14.71.862 0 1.724-.105 2.564-.273 7.986-1.408 13.345-9.015 11.916-17.022-1.24-6.998-7.335-12.126-14.48-12.126zm1.933 25.533a9.9 9.9 0 0 1-1.934.21 10.994 10.994 0 0 1-10.675-8.301 10.956 10.956 0 0 1-.358-2.732c-.02-6.095 4.897-11.054 10.991-11.075 6.095-.021 11.054 4.896 11.075 10.99a10.976 10.976 0 0 1-9.1 10.908z" fill="#fff"/><path d="M89.107 32.26c-.715-.715-1.87-.736-2.585-.021l-.02.02-3.321 3.216-3.32-3.257a1.866 1.866 0 0 0-2.607.315 1.838 1.838 0 0 0 .042 2.332l3.258 3.195-3.258 3.194c-.714.715-.735 1.87-.02 2.585l.02.02c.337.337.841.547 1.325.547.483 0 .924-.189 1.281-.525l3.32-3.257 3.3 3.32c.336.336.82.525 1.303.525a1.853 1.853 0 0 0 1.807-1.891c0-.462-.21-.925-.525-1.26l-3.257-3.195 3.257-3.194c.736-.694.799-1.85.105-2.585a.456.456 0 0 1-.105-.084zM40.98 73.785h-7.67c-1.051 0-1.892.841-1.892 1.892v.02c0 1.052.84 1.892 1.891 1.892h7.67a1.915 1.915 0 0 0 1.892-1.912 1.915 1.915 0 0 0-1.912-1.892h.02z" fill="#fff"/><path d="M85.575 56.175c-1.05 0-1.891.84-1.891 1.891v25.849c-.021 1.05-.883 1.912-1.934 1.912H28.12c-1.05 0-1.913-.862-1.934-1.912V45.772c0-1.072.862-1.933 1.934-1.933h17.253v11.18c-.02 1.05.82 1.891 1.87 1.912h15.362c1.051 0 1.892-.84 1.892-1.891V43.839h1.009a1.913 1.913 0 0 0 1.702-2.102c-.084-.903-.799-1.597-1.702-1.702H28.12a5.744 5.744 0 0 0-5.737 5.737v38.143a5.731 5.731 0 0 0 5.737 5.737h53.63a5.731 5.731 0 0 0 5.78-5.695V58.066c0-1.05-.841-1.891-1.892-1.891h-.063zm-24.882-3.047H49.177v-9.29h11.516v9.29z" fill="#fff"/></svg>