<svg width="51" height="45" fill="none" xmlns="http://www.w3.org/2000/svg"><path fill="#fff" d="M0 0h51v45H0z"/><g clip-path="url(#a)" fill="#000"><path d="M24.82 15.452c-4.873 0-8.672 3.044-13.332 7.979 4.015 4.22 7.384 7.984 13.333 7.984 5.95 0 10.322-4.766 13.333-7.895-3.082-3.666-7.455-8.068-13.333-8.068zm0 15.076c-5.28 0-8.469-3.268-12.106-7.096 4.328-4.503 7.77-7.093 12.107-7.093 5.135 0 9.15 3.695 12.136 7.145-2.937 3.056-6.914 7.044-12.136 7.044z"/><path d="M24.821 18.113c-2.94 0-5.333 2.387-5.333 5.32 0 2.934 2.393 5.321 5.333 5.321 2.941 0 5.333-2.387 5.333-5.32 0-2.934-2.392-5.32-5.333-5.32zm0 9.754a4.444 4.444 0 0 1-4.444-4.433A4.444 4.444 0 0 1 24.821 19a4.444 4.444 0 0 1 4.444 4.434 4.444 4.444 0 0 1-4.444 4.433z"/><path d="M24.822 20.33a3.111 3.111 0 0 0-3.111 3.104 3.111 3.111 0 0 0 6.222 0 3.111 3.111 0 0 0-3.111-3.104zm0 5.32a2.222 2.222 0 0 1-2.222-2.216 2.222 2.222 0 0 1 4.444 0 2.222 2.222 0 0 1-2.222 2.217z"/></g><defs><clipPath id="a"><path fill="#fff" transform="translate(11.164 9.811)" d="M0 0h27.305v27.243H0z"/></clipPath></defs></svg>