<svg width="17" height="17" fill="none" xmlns="http://www.w3.org/2000/svg"><g clip-path="url(#a)" fill="#000"><path d="M8.5.133c4.609 0 8.367 3.758 8.367 8.367 0 4.609-3.758 8.367-8.367 8.367C3.891 16.867.133 13.11.133 8.5.133 3.891 3.89.133 8.5.133zm0 15.672c4.024 0 7.305-3.28 7.305-7.305 0-4.024-3.28-7.305-7.305-7.305-4.024 0-7.305 3.28-7.305 7.305 0 4.024 3.28 7.305 7.305 7.305z"/><path d="M7.969 7.238H9.03v5.313H7.97V7.238zM7.969 4.715H9.03v1.062H7.97V4.715z"/></g><defs><clipPath id="a"><path fill="#fff" transform="matrix(-1 0 0 1 17 0)" d="M0 0h17v17H0z"/></clipPath></defs></svg>