<svg width="18" height="18" fill="none" xmlns="http://www.w3.org/2000/svg"><path d="M8.612 9.807h2.693c.984 0 1.788.804 1.788 1.788v1.986a.44.44 0 0 1-.441.44H7.265a.44.44 0 0 1-.44-.44v-1.986c0-.984.803-1.788 1.787-1.788zm-6.493-5.26H.636c-.58 0-.58-.88 0-.88h1.483V1.844a.44.44 0 0 1 .44-.44h10.905a4.346 4.346 0 0 1 4.335 4.334v10.418a.44.44 0 0 1-.441.44h-14.8a.44.44 0 0 1-.44-.44v-1.823H.637c-.58 0-.58-.88 0-.88h1.483V9.44H.636c-.58 0-.58-.88 0-.88h1.483V4.548zm11.345-2.263H2.998v13.432h13.919V5.738a3.466 3.466 0 0 0-3.454-3.454zM9.957 3.978a2.663 2.663 0 1 1 0 5.326 2.663 2.663 0 0 1 0-5.326zm0 .881a1.782 1.782 0 1 0 0 3.564 1.782 1.782 0 0 0 0-3.564zm1.347 5.83H8.612a.91.91 0 0 0-.907.906v1.546h4.507v-1.546a.91.91 0 0 0-.907-.907z" fill="#000"/></svg>