<svg width="17" height="17" fill="none" xmlns="http://www.w3.org/2000/svg"><g clip-path="url(#a)"><path d="M3.06 16.66h10.88V15.3h2.72v-4.08a4.427 4.427 0 0 0-3.116-4.223A3.058 3.058 0 0 0 14.96 4.42a3.063 3.063 0 0 0-3.06-3.06c-.29 0-.58.044-.86.127A3.39 3.39 0 0 0 8.5.34a3.39 3.39 0 0 0-2.54 1.147 3.027 3.027 0 0 0-.86-.127 3.064 3.064 0 0 0-3.06 3.06c0 1.082.566 2.033 1.416 2.577A4.427 4.427 0 0 0 .34 11.22v4.08h2.72v1.36zm10.2-.68H3.74v-5.1c0-.114.007-.226.017-.337l.012-.109c.009-.077.02-.152.035-.227l.02-.115c.022-.097.047-.193.075-.288.014-.047.031-.093.047-.139a3.72 3.72 0 0 1 .122-.31c.022-.049.046-.096.07-.144.034-.07.07-.137.11-.204.033-.058.067-.116.104-.172.029-.044.06-.086.09-.129a3.43 3.43 0 0 1 .327-.395 3.858 3.858 0 0 1 .294-.281 3.604 3.604 0 0 1 .38-.283 3.726 3.726 0 0 1 .404-.227c.047-.023.092-.046.14-.067l.054-.025c.443-.185.93-.288 1.439-.288h2.04c.51 0 .995.103 1.438.289l.055.024c.047.02.092.044.138.067.092.044.18.092.267.144.047.027.093.054.137.083a3.8 3.8 0 0 1 .266.191 3.646 3.646 0 0 1 .41.373 3.6 3.6 0 0 1 .327.396l.09.128a3.743 3.743 0 0 1 .214.377 3.787 3.787 0 0 1 .133.294c.02.052.04.106.058.16.016.046.033.092.047.138.029.095.054.191.075.289.008.037.014.076.02.114a3.882 3.882 0 0 1 .065.673v5.1zm2.72-4.76v3.4h-2.04v-3.74c0-.162-.01-.32-.027-.478-.004-.037-.012-.073-.017-.11a4.432 4.432 0 0 0-.06-.36l-.03-.114a4.368 4.368 0 0 0-.098-.34l-.04-.112a4.438 4.438 0 0 0-.416-.843 4.57 4.57 0 0 0-.194-.28c-.025-.034-.048-.068-.074-.1a4.364 4.364 0 0 0-.236-.272c-.023-.025-.044-.051-.068-.075a4.379 4.379 0 0 0-.338-.314 3.744 3.744 0 0 1 3.638 3.738zm-4.514-9.139A2.383 2.383 0 0 1 14.28 4.42 2.383 2.383 0 0 1 11.9 6.8c-.467 0-.916-.136-1.301-.389l.014-.013c.293-.232.545-.513.748-.828l.018-.031c.06-.094.113-.19.163-.29l.023-.049c.046-.094.086-.19.122-.29l.023-.06c.033-.096.061-.193.085-.291l.02-.073c.02-.097.037-.195.05-.294.004-.026.01-.052.012-.078a3.22 3.22 0 0 0-.002-.771c-.005-.042-.013-.082-.02-.124a3.489 3.489 0 0 0-.085-.398 3.266 3.266 0 0 0-.096-.289l-.028-.079a3.395 3.395 0 0 0-.177-.365l-.003-.007zm-.87-.073.02.027c.017.02.032.042.048.063.173.228.306.477.399.739l.018.051c.04.122.072.247.094.374a2.748 2.748 0 0 1 .044.478c0 .112-.008.222-.021.33-.003.026-.008.051-.012.077-.014.09-.031.18-.054.267l-.014.055c-.062.219-.15.429-.262.625l-.006.01a2.707 2.707 0 0 1-.182.272l-.018.024c-.139.18-.3.342-.481.483l-.032.024a2.742 2.742 0 0 1-.264.177l-.048.03-.039.022a2.702 2.702 0 0 1-2.572 0l-.039-.023-.048-.029a2.74 2.74 0 0 1-.264-.177l-.032-.024a2.75 2.75 0 0 1-.48-.483l-.019-.024a2.745 2.745 0 0 1-.188-.282 2.725 2.725 0 0 1-.262-.625l-.014-.055a2.707 2.707 0 0 1-.054-.267c-.004-.026-.009-.05-.012-.076a2.672 2.672 0 0 1-.022-.331c0-.134.013-.267.032-.397l.012-.08a2.71 2.71 0 0 1 .094-.375l.019-.05a2.72 2.72 0 0 1 .4-.74c.015-.02.03-.043.047-.063l.02-.027a2.715 2.715 0 0 1 4.191 0zM2.72 4.42a2.383 2.383 0 0 1 2.814-2.339l-.003.007c-.066.117-.125.239-.176.365-.011.026-.02.053-.03.08a3.33 3.33 0 0 0-.181.686c-.006.041-.014.082-.019.124-.015.13-.025.262-.025.397 0 .126.008.251.022.374l.011.078c.014.1.03.198.052.294a3.368 3.368 0 0 0 .104.363l.023.062c.036.099.077.195.122.29l.024.049c.05.1.103.196.162.29l.019.03c.202.316.455.596.747.83l.014.012a2.364 2.364 0 0 1-1.3.388 2.383 2.383 0 0 1-2.38-2.38zm-1.7 10.2v-3.4a3.745 3.745 0 0 1 3.638-3.739 4.47 4.47 0 0 0-.338.314c-.024.024-.045.05-.068.075a4.396 4.396 0 0 0-.236.273c-.026.032-.05.066-.074.099a4.34 4.34 0 0 0-.424.69l-.053.11a4.266 4.266 0 0 0-.132.324c-.014.037-.029.073-.041.111a4.57 4.57 0 0 0-.098.342l-.03.113a4.477 4.477 0 0 0-.06.361c-.006.037-.013.073-.017.11a4.424 4.424 0 0 0-.027.477v3.74H1.02z" fill="#000"/></g><defs><clipPath id="a"><path fill="#fff" d="M0 0h17v17H0z"/></clipPath></defs></svg>