<svg width="62" height="62" fill="none" xmlns="http://www.w3.org/2000/svg"><circle cx="31" cy="31" r="31" fill="#6DACBD" fill-opacity=".2"/><path d="M40.967 20.174V38.95H27.632a3.34 3.34 0 0 0-6.668 0h-3.382V20.174h23.385zM52.095 32.322v6.627h-2.222a3.34 3.34 0 0 0-6.668 0H40.97V25.696h4.652l6.474 6.626z" stroke="#000" stroke-linecap="round" stroke-linejoin="round"/><path d="M52.095 32.322v6.627h-2.222a3.34 3.34 0 0 0-6.668 0H40.97v-6.627h11.126zM24.294 42.262c1.845 0 3.34-1.484 3.34-3.313 0-1.83-1.495-3.313-3.34-3.313-1.845 0-3.34 1.483-3.34 3.313s1.495 3.313 3.34 3.313z" stroke="#000" stroke-linecap="round" stroke-linejoin="round"/><path d="M46.532 42.262c1.845 0 3.34-1.484 3.34-3.313 0-1.83-1.495-3.313-3.34-3.313-1.845 0-3.34 1.483-3.34 3.313s1.495 3.313 3.34 3.313zM10.68 22.383h3.603M10.68 26.8h3.603M10.68 31.218h3.603" stroke="#000" stroke-linecap="round" stroke-linejoin="round"/></svg>