<svg width="62" height="62" fill="none" xmlns="http://www.w3.org/2000/svg"><circle cx="31" cy="31" r="31" fill="#CFE4E9"/><path d="M36.997 25.86 25.22 35.22c-.234.194-.312.584-.078.818a.556.556 0 0 0 .468.234c.117 0 .273-.039.351-.117l11.778-9.36c.234-.195.312-.585.078-.819-.195-.273-.546-.312-.819-.117zM28.38 30.032c.156 0 .312 0 .468-.039a2.939 2.939 0 0 0 2.457-3.393 3.007 3.007 0 0 0-1.17-1.95 2.904 2.904 0 0 0-2.184-.546 3.007 3.007 0 0 0-1.95 1.17 2.904 2.904 0 0 0-.546 2.184c.234 1.521 1.521 2.574 2.925 2.574zm-.273-4.719c.078 0 .195-.039.273-.039.858 0 1.638.624 1.755 1.521a1.768 1.768 0 0 1-1.482 2.028 1.768 1.768 0 0 1-2.028-1.482c-.156-.975.546-1.872 1.482-2.028zM34.62 31.982a2.963 2.963 0 0 0-2.964 2.964 2.963 2.963 0 0 0 2.964 2.964 2.963 2.963 0 0 0 2.964-2.964c-.039-1.638-1.365-2.964-2.964-2.964zm0 4.72a1.815 1.815 0 0 1-1.794-1.795c0-.975.82-1.794 1.794-1.794.975 0 1.794.82 1.794 1.794-.039 1.014-.819 1.794-1.794 1.794z" fill="#000"/><path d="M49.205 30.617c0-.039.039-.117.039-.156 0-1.677-1.755-2.535-3.276-3.276-1.092-.546-2.262-1.13-2.574-1.833-.312-.74.117-1.95.546-3.08.585-1.6 1.17-3.238.078-4.33-1.092-1.092-2.652-.702-4.212-.35-1.092.233-2.223.506-2.964.194-.741-.312-1.365-1.287-1.95-2.223-.858-1.326-1.794-2.847-3.432-2.847s-2.574 1.521-3.393 2.886c-.585.975-1.17 1.95-1.911 2.262-.741.312-1.911.04-3.003-.234-1.56-.39-3.16-.78-4.212.273-1.092 1.092-.546 2.73-.04 4.33.39 1.17.742 2.34.43 3.12-.312.74-1.404 1.286-2.457 1.832-1.482.78-3.16 1.638-3.16 3.276 0 .04 0 .117.04.156 0 .04-.04.117-.04.156 0 1.638 1.678 2.535 3.16 3.276 1.053.546 2.145 1.092 2.457 1.833.312.741-.078 1.95-.43 3.12-.506 1.6-1.052 3.237.04 4.33 1.092 1.091 2.69.662 4.212.272 1.092-.273 2.262-.546 3.003-.234.74.312 1.326 1.287 1.91 2.262.82 1.365 1.756 2.886 3.394 2.886 1.638 0 2.613-1.52 3.432-2.847.585-.936 1.209-1.91 1.95-2.223.78-.312 1.872-.078 2.964.195 1.52.351 3.12.741 4.212-.35 1.092-1.093.507-2.73-.078-4.33-.43-1.17-.858-2.34-.546-3.08.312-.742 1.443-1.288 2.574-1.834 1.52-.78 3.276-1.638 3.276-3.276 0-.078-.04-.117-.04-.156zm-3.783 2.38c-1.287.662-2.652 1.325-3.12 2.456-.507 1.17.039 2.574.507 3.94.468 1.286.936 2.534.35 3.08-.623.624-1.832.351-3.12.04-1.286-.313-2.573-.586-3.704-.118-1.092.468-1.794 1.56-2.457 2.652-.741 1.17-1.443 2.301-2.457 2.301-.975 0-1.677-1.13-2.418-2.34-.663-1.13-1.365-2.262-2.457-2.73-1.131-.468-2.457-.156-3.744.195-1.287.312-2.496.624-3.12.04-.585-.586-.195-1.834.234-3.12.429-1.366.897-2.77.39-3.9-.468-1.132-1.755-1.795-3.003-2.419-1.287-.663-2.496-1.287-2.496-2.262 0-.039 0-.117-.04-.156 0-.039.04-.117.04-.156 0-.936 1.209-1.56 2.496-2.262 1.248-.624 2.535-1.287 3.003-2.418.468-1.17.039-2.574-.39-3.9-.43-1.326-.82-2.574-.234-3.12.624-.624 1.833-.312 3.12.04 1.287.311 2.613.662 3.744.194 1.092-.468 1.794-1.599 2.457-2.73.74-1.209 1.404-2.34 2.418-2.34 1.014 0 1.716 1.131 2.457 2.301.702 1.092 1.404 2.184 2.457 2.652 1.13.468 2.418.156 3.705-.117 1.287-.312 2.496-.585 3.12.04.585.545.117 1.793-.351 3.08-.507 1.365-1.014 2.77-.507 3.94.468 1.13 1.833 1.793 3.12 2.456 1.365.663 2.613 1.326 2.613 2.262 0 .04 0 .117.039.156 0 .04-.04.117-.04.156.04.78-1.247 1.443-2.612 2.106z" fill="#000"/></svg>