<svg width="62" height="62" fill="none" xmlns="http://www.w3.org/2000/svg"><circle cx="31" cy="31" r="31" fill="#CFE4E9"/><g clip-path="url(#a)" fill="#000"><path d="M34.322 30.18a.701.701 0 0 0-.946 0l-2.2 2.461-2.376-2.44a.7.7 0 0 0-.946 0 .69.69 0 0 0 0 .954l2.31 2.462-2.354 2.506a.668.668 0 0 0 .462 1.131.613.613 0 0 0 .484-.222l2.2-2.44 2.2 2.44a.616.616 0 0 0 .484.222.634.634 0 0 0 .462-.2.668.668 0 0 0 0-.931l-2.112-2.506 2.354-2.44a.688.688 0 0 0 .14-.774.688.688 0 0 0-.162-.224z"/><path d="M43.322 17.627h-24.64c-1.371 0-2.686.549-3.656 1.526a5.233 5.233 0 0 0-1.514 3.686v.221a5.256 5.256 0 0 0 1.52 3.68 5.171 5.171 0 0 0 3.65 1.532h.132v12.442a3.71 3.71 0 0 0 1.038 2.66 3.65 3.65 0 0 0 2.614 1.11H39.56c.962 0 1.886-.386 2.566-1.072a3.674 3.674 0 0 0 1.064-2.587v-12.62h.132a5.155 5.155 0 0 0 3.697-1.47 5.268 5.268 0 0 0 1.583-3.675v-.221a5.247 5.247 0 0 0-1.553-3.725 5.132 5.132 0 0 0-3.727-1.487zM39.56 43.064H22.466a2.345 2.345 0 0 1-1.643-.694 2.383 2.383 0 0 1-.69-1.656V23.88h21.869v16.833a2.388 2.388 0 0 1-.728 1.695 2.352 2.352 0 0 1-1.714.655zm7.612-19.96a3.918 3.918 0 0 1-1.15 2.71 3.856 3.856 0 0 1-2.7 1.127h-.132v-3.06h1.386c.175 0 .343-.07.466-.195a.668.668 0 0 0 .194-.47.647.647 0 0 0-.404-.621.634.634 0 0 0-.256-.045H17.45a.657.657 0 0 0-.467.195.668.668 0 0 0-.193.47.69.69 0 0 0 .2.465.68.68 0 0 0 .46.2h1.364v3.106h-.132a3.846 3.846 0 0 1-2.732-1.16 3.905 3.905 0 0 1-1.118-2.766v-.221c0-1.03.405-2.017 1.127-2.745a3.834 3.834 0 0 1 2.723-1.136h24.64a3.822 3.822 0 0 1 2.722 1.136 3.884 3.884 0 0 1 1.128 2.745v.266z"/></g><defs><clipPath id="a"><path fill="#fff" transform="translate(12 11)" d="M0 0h39v39H0z"/></clipPath></defs></svg>