<svg width="29" height="29" fill="none" xmlns="http://www.w3.org/2000/svg"><path d="m25.15 8.519-.86-.861-7.975 7.975c-.997.997-2.674.997-3.67 0L4.67 7.703l-.861.861L9.745 14.5l-5.936 5.936.86.86 5.936-5.935 1.179 1.178c.725.725 1.676 1.133 2.673 1.133.997 0 1.948-.408 2.674-1.133l1.178-1.178 5.935 5.936.861-.861L19.17 14.5l5.982-5.981z" fill="#fff"/><path d="M23.473 22.837H5.575a1.915 1.915 0 0 1-1.903-1.903V8.156c0-1.042.86-1.903 1.903-1.903h17.898c1.043 0 1.904.861 1.904 1.903v12.778a1.915 1.915 0 0 1-1.904 1.903zM5.53 7.477a.62.62 0 0 0-.635.634v12.778a.62.62 0 0 0 .635.634h17.898a.62.62 0 0 0 .634-.634V8.111a.62.62 0 0 0-.634-.634H5.53z" fill="#fff"/></svg>