<svg width="23" height="24" fill="none" xmlns="http://www.w3.org/2000/svg"><path d="M11.5.3C5.15.3 0 5.496 0 11.905c0 6.408 5.15 11.604 11.5 11.604S23 18.313 23 11.905C23 5.496 17.85.3 11.5.3zm6.195 9.22c.005.13.008.257.008.385 0 3.934-2.966 8.467-8.39 8.467a8.28 8.28 0 0 1-4.521-1.337c.23.028.465.04.704.04a5.867 5.867 0 0 0 3.662-1.274 2.956 2.956 0 0 1-2.755-2.067 2.911 2.911 0 0 0 1.332-.051 2.97 2.97 0 0 1-2.366-2.918v-.037a2.91 2.91 0 0 0 1.336.372 2.982 2.982 0 0 1-1.312-2.477c0-.546.144-1.058.398-1.496a8.348 8.348 0 0 0 6.079 3.11 3.038 3.038 0 0 1-.076-.677c0-1.644 1.32-2.977 2.949-2.977.848 0 1.615.362 2.152.94A5.896 5.896 0 0 0 18.77 6.8a2.984 2.984 0 0 1-1.298 1.646 5.852 5.852 0 0 0 1.695-.468 5.978 5.978 0 0 1-1.471 1.542z" fill="#fff"/></svg>